<svg version="1.2" width="383.811" height="384.038" viewBox="4815 4809 10155 10161" preserveAspectRatio="xMidYMid" fill-rule="evenodd" stroke-width="28.222" stroke-linejoin="round" xmlns="http://www.w3.org/2000/svg"><defs class="ClipPathGroup"><clipPath id="a" clipPathUnits="userSpaceOnUse"><path d="M4815 4809h10155v10161H4815z"/></clipPath></defs><g class="SlideGroup"><g class="Slide" clip-path="url(#a)"><g class="Page"><g class="com.sun.star.drawing.CustomShape"><path class="BoundingBox" fill="none" d="M4814 4808h5081v5084H4814z"/><path fill="#55308D" d="M7354 9890H4815V4809h5078v5081H7354z"/><path fill="none" stroke="#3465A4" d="M7354 9890H4815V4809h5078v5081H7354z"/></g><g class="com.sun.star.drawing.CustomShape"><path class="BoundingBox" fill="none" d="M9891 4808h5080v5084H9891z"/><path fill="#B85C00" d="M12431 9890H9892V4809h5077v5081h-2538z"/><path fill="none" stroke="#3465A4" d="M12431 9890H9892V4809h5077v5081h-2538z"/></g><g class="com.sun.star.drawing.CustomShape"><path class="BoundingBox" fill="none" d="M9891 9889h5080v5082H9891z"/><path fill="#3465A4" d="M12431 14969H9892V9890h5077v5079h-2538z"/><path fill="none" stroke="#3465A4" d="M12431 14969H9892V9890h5077v5079h-2538z"/></g><g class="com.sun.star.drawing.CustomShape"><path class="BoundingBox" fill="none" d="M4814 9889h5081v5082H4814z"/><path fill="#7B3D00" d="M7354 14969H4815V9890h5078v5079H7354z"/><path fill="none" stroke="#3465A4" d="M7354 14969H4815V9890h5078v5079H7354z"/></g></g></g></g></svg>